<svg style="position: absolute; width: 0; height: 0; overflow: hidden;" version="1.1" xmlns="http://www.w3.org/2000/svg" xmlns:xlink="http://www.w3.org/1999/xlink">
<defs>
<symbol id="icon-pencil" viewBox="0 0 20 20">
<title>pencil</title>
<path d="M16.875 0c1.726 0 3.125 1.399 3.125 3.125 0 0.704-0.233 1.353-0.625 1.875l-1.25 1.25-4.375-4.375 1.25-1.25c0.522-0.392 1.171-0.625 1.875-0.625zM1.25 14.375l-1.25 5.625 5.625-1.25 11.563-11.563-4.375-4.375-11.563 11.563zM13.976 7.101l-8.75 8.75-1.077-1.077 8.75-8.75 1.077 1.077z"></path>
</symbol>
<symbol id="icon-search2" viewBox="0 0 20 20">
<title>search2</title>
<path d="M19.38 17.019l-4.737-4.029c-0.49-0.441-1.013-0.643-1.437-0.624 1.118-1.31 1.794-3.009 1.794-4.867 0-4.142-3.358-7.5-7.5-7.5s-7.5 3.358-7.5 7.5 3.358 7.5 7.5 7.5c1.857 0 3.557-0.676 4.867-1.794-0.020 0.423 0.183 0.947 0.624 1.437l4.029 4.737c0.69 0.767 1.817 0.831 2.504 0.144s0.623-1.814-0.144-2.504zM7.5 12.5c-2.761 0-5-2.239-5-5s2.239-5 5-5 5 2.239 5 5-2.239 5-5 5z"></path>
</symbol>
<symbol id="icon-bin2" viewBox="0 0 20 20">
<title>bin2</title>
<path d="M3.75 20h12.5l1.25-13.75h-15zM12.5 2.5v-2.5h-5v2.5h-6.25v3.75l1.25-1.25h15l1.25 1.25v-3.75h-6.25zM11.25 2.5h-2.5v-1.25h2.5v1.25z"></path>
</symbol>
<symbol id="icon-cross" viewBox="0 0 20 20">
<title>cross</title>
<path d="M19.818 16.068c-0-0-0-0-0-0l-6.067-6.067 6.067-6.067c0-0 0-0 0-0 0.065-0.065 0.113-0.142 0.143-0.223 0.083-0.222 0.036-0.482-0.143-0.661l-2.866-2.866c-0.179-0.179-0.438-0.226-0.661-0.143-0.081 0.030-0.158 0.077-0.223 0.143 0 0-0 0-0 0l-6.067 6.067-6.067-6.067c-0-0-0-0-0-0-0.065-0.065-0.142-0.113-0.223-0.143-0.222-0.083-0.482-0.036-0.661 0.143l-2.866 2.866c-0.179 0.179-0.226 0.439-0.143 0.661 0.030 0.081 0.078 0.158 0.143 0.223 0 0 0 0 0 0l6.067 6.067-6.067 6.067c-0 0-0 0-0 0-0.065 0.065-0.113 0.142-0.143 0.223-0.083 0.222-0.036 0.482 0.143 0.661l2.866 2.866c0.179 0.179 0.439 0.226 0.661 0.143 0.081-0.030 0.158-0.078 0.223-0.143 0-0 0-0 0-0l6.067-6.067 6.067 6.067c0 0 0 0 0 0 0.065 0.065 0.142 0.113 0.223 0.143 0.222 0.083 0.482 0.036 0.661-0.143l2.866-2.866c0.179-0.179 0.226-0.439 0.143-0.661-0.030-0.081-0.078-0.158-0.143-0.223z"></path>
</symbol>
</defs>
</svg>
